<svg width="223" height="60" viewBox="0 0 223 60" fill="none" xmlns="http://www.w3.org/2000/svg">
<path d="M43.9954 26C43.9954 32.8987 42.4055 39.0457 39.9375 43.3983C37.4356 47.8103 34.2882 50 31.2523 50C28.2164 50 25.069 47.8103 22.5672 43.3983C20.0991 39.0457 18.5093 32.8987 18.5093 26C18.5093 19.1013 20.0991 12.9543 22.5672 8.60174C25.069 4.18968 28.2164 2 31.2523 2C34.2882 2 37.4356 4.18968 39.9375 8.60174C42.4055 12.9543 43.9954 19.1013 43.9954 26Z" stroke="white" stroke-width="4"/>
<path d="M30.8056 15.2063C23.6511 15.2063 17.2729 16.684 12.7571 18.9783C8.13054 21.3289 6 24.2134 6 26.8254C6 29.4374 8.13054 32.3219 12.7571 34.6725C17.2729 36.9668 23.6511 38.4444 30.8056 38.4444C37.9601 38.4444 44.3382 36.9668 48.854 34.6725C53.4806 32.3219 55.6111 29.4374 55.6111 26.8254C55.6111 24.2134 53.4806 21.3289 48.854 18.9783C44.3382 16.684 37.9601 15.2063 30.8056 15.2063Z" stroke="white" stroke-width="4"/>
<g filter="url(#filter0_d_1_26)">
<path d="M55.6111 26C55.6111 39.1977 44.5632 50 30.8056 50C17.0479 50 6 39.1977 6 26C6 12.8023 17.0479 2 30.8056 2C44.5632 2 55.6111 12.8023 55.6111 26Z" stroke="white" stroke-width="4" shape-rendering="crispEdges"/>
</g>
<ellipse cx="31.2523" cy="26.8254" rx="3.12731" ry="2.88889" fill="#5B50FF"/>
<path d="M76.864 41.36C75.2 41.36 73.704 40.984 72.376 40.232C71.064 39.48 70.032 38.44 69.28 37.112C68.544 35.784 68.176 34.28 68.176 32.6C68.176 30.92 68.544 29.416 69.28 28.088C70.032 26.76 71.064 25.72 72.376 24.968C73.704 24.216 75.2 23.84 76.864 23.84C78.32 23.84 79.648 24.152 80.848 24.776C82.064 25.384 83.04 26.24 83.776 27.344C84.528 28.448 84.96 29.688 85.072 31.064H81.184C81.04 30.36 80.76 29.752 80.344 29.24C79.944 28.712 79.44 28.304 78.832 28.016C78.24 27.728 77.568 27.584 76.816 27.584C75.904 27.584 75.088 27.8 74.368 28.232C73.664 28.664 73.112 29.264 72.712 30.032C72.312 30.784 72.112 31.64 72.112 32.6C72.112 33.56 72.312 34.424 72.712 35.192C73.112 35.944 73.664 36.536 74.368 36.968C75.088 37.384 75.904 37.592 76.816 37.592C77.568 37.592 78.24 37.456 78.832 37.184C79.44 36.896 79.944 36.496 80.344 35.984C80.76 35.456 81.04 34.84 81.184 34.136H85.072C84.96 35.512 84.528 36.752 83.776 37.856C83.04 38.96 82.064 39.824 80.848 40.448C79.648 41.056 78.32 41.36 76.864 41.36ZM93.9992 41.24C92.7512 41.24 91.6232 40.968 90.6152 40.424C89.6232 39.88 88.8392 39.136 88.2632 38.192C87.7032 37.232 87.4232 36.168 87.4232 35C87.4232 33.816 87.7032 32.752 88.2632 31.808C88.8392 30.864 89.6232 30.12 90.6152 29.576C91.6232 29.032 92.7512 28.76 93.9992 28.76C95.2313 28.76 96.3433 29.032 97.3353 29.576C98.3432 30.12 99.1352 30.872 99.7112 31.832C100.287 32.776 100.575 33.832 100.575 35C100.575 36.168 100.287 37.232 99.7112 38.192C99.1352 39.136 98.3432 39.88 97.3353 40.424C96.3433 40.968 95.2313 41.24 93.9992 41.24ZM93.9992 38.144C94.5752 38.144 95.1033 38.008 95.5833 37.736C96.0633 37.464 96.4392 37.088 96.7112 36.608C96.9992 36.128 97.1432 35.592 97.1432 35C97.1432 34.408 96.9992 33.872 96.7112 33.392C96.4392 32.912 96.0633 32.536 95.5833 32.264C95.1033 31.976 94.5752 31.832 93.9992 31.832C93.4072 31.832 92.8712 31.976 92.3912 32.264C91.9112 32.536 91.5272 32.912 91.2392 33.392C90.9672 33.872 90.8312 34.408 90.8312 35C90.8312 35.592 90.9672 36.128 91.2392 36.608C91.5272 37.088 91.9112 37.464 92.3912 37.736C92.8712 38.008 93.4072 38.144 93.9992 38.144ZM103.912 41V29H107.248V33.152C107.472 31.824 107.968 30.76 108.736 29.96C109.52 29.16 110.472 28.76 111.592 28.76C112.488 28.76 113.272 28.984 113.944 29.432C114.616 29.88 115.136 30.52 115.504 31.352C115.872 32.168 116.056 33.12 116.056 34.208V41H112.696V34.736C112.68 33.872 112.424 33.176 111.928 32.648C111.432 32.12 110.784 31.856 109.984 31.856C109.472 31.856 109.008 31.984 108.592 32.24C108.176 32.496 107.848 32.84 107.608 33.272C107.368 33.704 107.248 34.192 107.248 34.736V41H103.912ZM125.66 41.24C124.444 41.24 123.34 40.976 122.348 40.448C121.372 39.92 120.596 39.192 120.02 38.264C119.46 37.336 119.18 36.28 119.18 35.096C119.18 33.864 119.468 32.768 120.044 31.808C120.62 30.848 121.404 30.104 122.396 29.576C123.388 29.032 124.484 28.76 125.684 28.76C126.884 28.76 127.964 29.032 128.924 29.576C129.9 30.104 130.668 30.848 131.228 31.808C131.788 32.752 132.068 33.816 132.068 35C132.068 35.032 132.068 35.072 132.068 35.12C132.068 35.168 132.068 35.208 132.068 35.24H122.468C122.5 35.816 122.66 36.336 122.948 36.8C123.252 37.248 123.636 37.608 124.1 37.88C124.58 38.136 125.108 38.264 125.684 38.264C126.244 38.264 126.748 38.152 127.196 37.928C127.644 37.704 127.956 37.408 128.132 37.04H131.708C131.628 37.712 131.324 38.376 130.796 39.032C130.284 39.672 129.58 40.2 128.684 40.616C127.804 41.032 126.796 41.24 125.66 41.24ZM128.924 34.76C128.892 34.184 128.732 33.672 128.444 33.224C128.156 32.76 127.772 32.4 127.292 32.144C126.828 31.872 126.3 31.736 125.708 31.736C125.132 31.736 124.604 31.872 124.124 32.144C123.66 32.4 123.276 32.76 122.972 33.224C122.684 33.672 122.524 34.184 122.492 34.76H128.924ZM140.906 41.24C139.674 41.24 138.562 40.968 137.57 40.424C136.594 39.88 135.826 39.136 135.266 38.192C134.706 37.248 134.426 36.184 134.426 35C134.426 33.816 134.706 32.752 135.266 31.808C135.826 30.864 136.594 30.12 137.57 29.576C138.562 29.032 139.674 28.76 140.906 28.76C141.994 28.76 142.978 28.984 143.858 29.432C144.754 29.864 145.474 30.472 146.018 31.256C146.578 32.024 146.906 32.88 147.002 33.824H143.69C143.514 33.216 143.178 32.72 142.682 32.336C142.186 31.952 141.594 31.76 140.906 31.76C140.298 31.76 139.754 31.904 139.274 32.192C138.81 32.464 138.442 32.848 138.17 33.344C137.898 33.84 137.762 34.392 137.762 35C137.762 35.608 137.898 36.16 138.17 36.656C138.442 37.136 138.81 37.52 139.274 37.808C139.754 38.08 140.298 38.216 140.906 38.216C141.594 38.216 142.186 38.024 142.682 37.64C143.178 37.256 143.514 36.76 143.69 36.152H147.002C146.906 37.112 146.578 37.984 146.018 38.768C145.474 39.536 144.754 40.144 143.858 40.592C142.978 41.024 141.994 41.24 140.906 41.24Z" fill="white"/>
<path d="M155.73 41.24C154.498 41.24 153.386 40.968 152.394 40.424C151.418 39.88 150.65 39.136 150.09 38.192C149.53 37.248 149.25 36.184 149.25 35C149.25 33.816 149.53 32.752 150.09 31.808C150.65 30.864 151.418 30.12 152.394 29.576C153.386 29.032 154.498 28.76 155.73 28.76C156.818 28.76 157.802 28.984 158.682 29.432C159.578 29.864 160.298 30.472 160.842 31.256C161.402 32.024 161.73 32.88 161.826 33.824H158.514C158.338 33.216 158.002 32.72 157.506 32.336C157.01 31.952 156.418 31.76 155.73 31.76C155.122 31.76 154.578 31.904 154.098 32.192C153.634 32.464 153.266 32.848 152.994 33.344C152.722 33.84 152.586 34.392 152.586 35C152.586 35.608 152.722 36.16 152.994 36.656C153.266 37.136 153.634 37.52 154.098 37.808C154.578 38.08 155.122 38.216 155.73 38.216C156.418 38.216 157.01 38.024 157.506 37.64C158.002 37.256 158.338 36.76 158.514 36.152H161.826C161.73 37.112 161.402 37.984 160.842 38.768C160.298 39.536 159.578 40.144 158.682 40.592C157.802 41.024 156.818 41.24 155.73 41.24ZM170.725 41.24C169.157 41.24 167.997 40.904 167.245 40.232C166.493 39.544 166.117 38.544 166.117 37.232V32H163.405V29H164.989C165.485 29 165.861 28.872 166.117 28.616C166.373 28.344 166.501 27.968 166.501 27.488V26.12H169.453V29H173.773V32H169.453V36.392C169.453 37.016 169.613 37.464 169.933 37.736C170.253 38.008 170.773 38.144 171.493 38.144C172.133 38.144 172.893 38.072 173.773 37.928V40.928C173.293 41.008 172.773 41.08 172.213 41.144C171.653 41.208 171.157 41.24 170.725 41.24ZM177.164 41V29H180.5V41H177.164ZM178.724 27.632L176.732 23.12H180.98L178.964 27.632H178.724ZM187.814 41L183.11 29H186.614L190.022 38.12H190.238L193.646 29H197.102L192.374 41H187.814ZM204.9 41.24C203.684 41.24 202.58 40.976 201.588 40.448C200.612 39.92 199.836 39.192 199.26 38.264C198.7 37.336 198.42 36.28 198.42 35.096C198.42 33.864 198.708 32.768 199.284 31.808C199.86 30.848 200.644 30.104 201.636 29.576C202.628 29.032 203.724 28.76 204.924 28.76C206.124 28.76 207.204 29.032 208.164 29.576C209.14 30.104 209.908 30.848 210.468 31.808C211.028 32.752 211.308 33.816 211.308 35C211.308 35.032 211.308 35.072 211.308 35.12C211.308 35.168 211.308 35.208 211.308 35.24H201.708C201.74 35.816 201.9 36.336 202.188 36.8C202.492 37.248 202.876 37.608 203.34 37.88C203.82 38.136 204.348 38.264 204.924 38.264C205.484 38.264 205.988 38.152 206.436 37.928C206.884 37.704 207.196 37.408 207.372 37.04H210.948C210.868 37.712 210.564 38.376 210.036 39.032C209.524 39.672 208.82 40.2 207.924 40.616C207.044 41.032 206.036 41.24 204.9 41.24ZM208.164 34.76C208.132 34.184 207.972 33.672 207.684 33.224C207.396 32.76 207.012 32.4 206.532 32.144C206.068 31.872 205.54 31.736 204.948 31.736C204.372 31.736 203.844 31.872 203.364 32.144C202.9 32.4 202.516 32.76 202.212 33.224C201.924 33.672 201.764 34.184 201.732 34.76H208.164Z" fill="#5B51FC"/>
<line x1="76.5" y1="23" x2="76.5" y2="17" stroke="#5B51FC"/>
<line x1="77" y1="17.5" x2="156" y2="17.5" stroke="#5B51FC"/>
<path d="M156 17V29" stroke="#5B51FC"/>
<path d="M77 23H76" stroke="#5B51FC" stroke-width="1.8"/>
<defs>
<filter id="filter0_d_1_26" x="0" y="0" width="61.6111" height="60" filterUnits="userSpaceOnUse" color-interpolation-filters="sRGB">
<feFlood flood-opacity="0" result="BackgroundImageFix"/>
<feColorMatrix in="SourceAlpha" type="matrix" values="0 0 0 0 0 0 0 0 0 0 0 0 0 0 0 0 0 0 127 0" result="hardAlpha"/>
<feOffset dy="4"/>
<feGaussianBlur stdDeviation="2"/>
<feComposite in2="hardAlpha" operator="out"/>
<feColorMatrix type="matrix" values="0 0 0 0 0 0 0 0 0 0 0 0 0 0 0 0 0 0 0.25 0"/>
<feBlend mode="normal" in2="BackgroundImageFix" result="effect1_dropShadow_1_26"/>
<feBlend mode="normal" in="SourceGraphic" in2="effect1_dropShadow_1_26" result="shape"/>
</filter>
</defs>
</svg>
